<?xml version="1.0" encoding="UTF-8"?>
<svg width="305px" height="334px" viewBox="0 0 305 334" version="1.1" xmlns="http://www.w3.org/2000/svg" xmlns:xlink="http://www.w3.org/1999/xlink">
    <!-- Generator: Sketch 52.6 (67491) - http://www.bohemiancoding.com/sketch -->
    <title>Group 2</title>
    <desc>Created with Sketch.</desc>
    <g id="Page-1" stroke="none" stroke-width="1" fill="none" fill-rule="evenodd">
        <g id="Group" transform="translate(-190.000000, -96.000000)" fill-rule="nonzero">
            <g id="Group-2" transform="translate(190.000000, 96.000000)">
                <path d="M304.7938,244.004116 C303.071862,230.083184 291.592276,220.475781 276.860141,220.67185 C254.857601,220.965954 236.394601,232.632087 224.149709,240.376831 C219.366548,243.415908 215.25303,245.670707 211.713491,247.337297 C212.478797,235.965268 211.809154,221.063989 206.069361,204.692189 C199.085947,185.085242 189.710951,173.02697 183.014526,166.066504 C190.763247,154.498406 201.381864,137.636432 206.356351,111.559194 C210.661196,89.3053095 209.321911,54.6990491 199.468599,35.2881722 C197.459672,31.366783 194.111459,28.5237758 189.902278,27.347359 C188.18034,26.8571853 184.927791,25.876838 178.518355,27.7394979 C168.85637,7.25023896 165.508158,5.09347486 162.925251,3.32884969 C157.568111,-0.200400656 151.254339,-0.984678511 145.323219,1.27012032 C137.383172,4.21116227 130.591084,12.0539408 124.181649,25.9748727 C123.225016,28.0336021 122.364047,29.9942967 121.598742,31.9549914 C109.449513,32.837304 90.3168702,37.3469016 74.1497867,55.2872575 C72.1408591,57.5420564 68.2186673,59.2086468 64.105149,60.7772025 L64.2008122,60.7772025 C55.7824492,63.8162792 51.9559206,70.8747799 47.268423,83.619295 C40.7633243,101.461616 47.4597494,119.009833 54.0605113,130.381862 C45.068169,138.61678 33.1102671,151.753434 26.7964948,167.144887 C18.9521111,186.163624 18.0911422,204.790224 18.3781318,214.887801 C11.6817067,222.142371 1.35007938,235.769199 0.202120792,251.062617 C-1.32849066,272.434188 6.22890339,286.943329 9.57711595,292.237204 C10.5337481,293.80576 11.5860435,295.080211 12.7340021,296.354663 C12.3513492,299.001601 12.255686,301.844608 12.8296653,304.78565 C14.0732871,311.648081 18.2824686,317.236061 24.6919041,320.765311 C37.3194486,327.627742 54.9214803,330.568784 68.5056569,323.608318 C73.3844809,328.902194 82.28116,334 98.4482435,334 L99.4048757,334 C103.518394,334 155.75051,331.156993 170.960961,327.333638 C177.753049,325.667048 182.440547,322.726006 185.50177,320.079068 C195.259418,316.941957 222.236445,307.530622 247.68286,290.668649 C265.667545,278.708411 271.885654,276.159508 285.278504,272.826327 C298.288701,269.591181 306.420075,257.434874 304.7938,244.004116 Z M282.088048,258.981131 C266.856874,262.700351 259.146093,266.125948 240.297515,278.751719 C210.88231,298.326559 178.706456,307.428859 178.706456,307.428859 C178.706456,307.428859 176.041,311.539576 168.330219,313.399185 C155.002942,316.726908 104.835263,319.56526 100.265911,319.663134 C87.9857767,319.761008 80.4653846,316.433286 78.3710982,311.245953 C71.9930442,295.586081 87.5098025,288.734888 87.5098025,288.734888 C87.5098025,288.734888 84.0827884,286.581655 82.0836968,284.624171 C80.2749949,282.764562 78.3710982,279.045342 77.7999292,280.415581 C75.4200583,286.385907 74.1825254,300.969162 67.8044714,307.526734 C59.0465464,316.629034 42.4826449,313.594934 32.6775767,308.309727 C21.9205602,302.437275 33.4391354,288.637013 33.4391354,288.637013 C33.4391354,288.637013 27.6322504,292.160485 22.9677034,284.917794 C18.7791306,278.262348 14.8761423,266.908941 15.9232855,252.912931 C17.0656236,236.959437 34.3910838,221.495314 34.3910838,221.495314 C34.3910838,221.495314 31.344849,197.907632 41.3403069,173.732705 C50.3838163,151.71101 74.7536944,133.995781 74.7536944,133.995781 C74.7536944,133.995781 54.2868046,110.701721 61.9023915,89.756643 C66.852523,76.0542553 68.8516146,76.1521295 70.4699268,75.5648843 C76.181617,73.3137777 81.7029175,70.8669228 85.7962955,66.2668355 C106.263185,43.5600215 132.34657,47.8664862 132.34657,47.8664862 C132.34657,47.8664862 144.721899,9.20617802 156.14528,16.7424913 C159.667488,19.091472 172.328402,48.0622346 172.328402,48.0622346 C172.328402,48.0622346 185.846069,39.9386762 187.369186,42.9727763 C195.555942,59.3177674 196.50789,90.5396366 192.890486,109.527231 C186.798017,140.846974 171.566843,157.681336 165.474374,168.25175 C164.046451,170.698605 181.847885,178.430666 193.080876,210.435529 C203.457113,239.699914 194.223214,264.266338 195.841526,267.006816 C196.127111,267.496187 196.222306,267.691935 196.222306,267.691935 C196.222306,267.691935 208.12166,268.670677 232.015564,253.500176 C244.771672,245.376618 259.907651,236.274317 277.137917,236.078569 C293.797013,235.784946 294.653767,255.849157 282.088048,258.981131 Z" id="Yarn-Cat" fill="#2F90BC"></path>
                <path d="M282.009308,258.912542 C266.780177,262.631487 259.070429,266.05683 240.22438,278.681667 C210.81312,298.255059 178.641581,307.356686 178.641581,307.356686 C178.641581,307.356686 175.976483,311.467098 168.266735,313.32657 C154.941246,316.654046 104.780296,319.492188 100.211556,319.590055 C87.9330694,319.687922 80.4136859,316.360446 78.3196804,311.173497 C71.9424818,295.514784 87.457159,288.664097 87.457159,288.664097 C87.457159,288.664097 84.0306045,286.511024 82.0317811,284.553685 C80.2233218,282.694213 78.3196804,278.975268 77.748588,280.345406 C75.3690363,286.31529 74.1316694,300.897467 67.7544708,307.454553 C58.9977204,316.556179 42.4360405,313.522304 32.6322874,308.237488 C21.8767136,302.365471 33.3937439,288.56623 33.3937439,288.56623 C33.3937439,288.56623 27.5876377,292.08944 22.9237163,284.847286 C18.7357053,278.192333 14.8332405,266.839766 15.8802432,252.844791 C17.0224281,236.892477 34.3455646,221.429498 34.3455646,221.429498 C34.3455646,221.429498 31.2997384,197.843562 41.2938556,173.670424 C50.3361522,151.650358 74.7027618,133.936439 74.7027618,133.936439 C74.7027618,133.936439 54.238617,110.644104 61.8531825,89.7005752 C66.8026501,75.9992013 68.8014735,76.0970683 70.4195687,75.5098665 C76.1304928,73.2589265 81.6510528,70.8122526 85.7438818,66.2125057 C106.208027,43.5073719 132.287913,47.8135179 132.287913,47.8135179 C132.287913,47.8135179 144.661582,9.15607028 156.083431,16.6918259 C159.605167,19.0406328 172.264382,48.0092519 172.264382,48.0092519 C172.264382,48.0092519 185.780236,39.8862945 187.303149,42.9201701 C195.488807,59.2639518 196.440628,90.4835108 192.823709,109.4697 C186.732057,140.787126 171.502926,157.620243 165.411273,168.189874 C163.983542,170.636548 181.782589,178.368037 193.014073,210.370532 C203.388919,239.632752 194.156258,264.197358 195.774353,266.937633 C196.0599,267.426968 196.155082,267.622701 196.155082,267.622701 C196.155082,267.622701 208.05284,268.601371 231.94354,253.431993 C244.697937,245.309035 259.831886,236.207409 277.05984,236.011675 C293.716702,235.718074 294.573341,255.7808 282.009308,258.912542 Z" id="Path-Copy" fill="#FFFFFF"></path>
            </g>
        </g>
    </g>
</svg>
