<?xml version="1.0" encoding="UTF-8"?>
<svg width="423px" height="425px" viewBox="0 0 423 425" version="1.1" xmlns="http://www.w3.org/2000/svg" xmlns:xlink="http://www.w3.org/1999/xlink">
    <!-- Generator: Sketch 52.6 (67491) - http://www.bohemiancoding.com/sketch -->
    <title>Group 3</title>
    <desc>Created with Sketch.</desc>
    <g id="Page-1" stroke="none" stroke-width="1" fill="none" fill-rule="evenodd">
        <g id="Group" fill-rule="nonzero">
            <g id="Group-3">
                <g id="React-Logo" fill="#2F90BC">
                    <ellipse id="Oval" cx="211.5" cy="212.5" rx="211.5" ry="212.5"></ellipse>
                </g>
                <path d="M383,212.034791 C383,234.57908 354.767224,256.010071 311.546678,269.300069 C321.654709,313.414511 317.262943,348.552987 297.674276,359.825132 C293.07338,362.469215 287.775377,363.721675 281.91969,363.721675 C262.749287,363.721675 237.653486,350.222934 212.278842,326.704509 C186.904199,350.362097 161.808398,364 142.637994,364 C136.782307,364 131.484305,362.747539 126.953119,360.103456 C107.294741,348.831312 102.833265,313.623255 112.871586,269.36965 C69.3721973,256.079652 41,234.648661 41,212.034791 C41,189.490501 69.2327762,168.129091 112.592744,154.769512 C102.484713,110.65507 106.876478,75.5165942 126.465145,64.2444495 C131.066042,61.6003662 136.364044,60.3479057 142.219731,60.3479057 L142.219731,75.8644999 C139.013045,75.8644999 136.294333,76.421149 134.203017,77.6736095 C124.792091,83.1705196 120.748879,103.836118 124.025275,130.416114 C124.861802,136.88716 126.046881,143.63653 127.650224,150.594644 C141.313494,147.185168 156.231553,144.610666 171.986139,142.940719 C181.257644,130.068208 191.017122,118.448157 200.7766,108.21973 C178.050958,87.2758068 156.649817,75.7949187 142.219731,75.7949187 L142.219731,60.2783246 C161.390135,60.2783246 186.485936,73.7770657 211.860579,97.295491 C237.235222,73.6379034 262.331023,60 281.501427,60 L281.501427,75.5165942 C267.001631,75.5165942 245.6702,87.0670634 222.944558,108.150149 C232.773746,118.378576 242.533225,130.068208 251.94415,142.940719 C267.629026,144.610666 282.547085,147.185168 296.210355,150.525063 C297.743987,143.497368 298.998777,136.608835 299.765593,130.068208 C302.972279,103.488212 298.859356,82.8226139 289.37872,77.395285 C287.217693,76.2124056 284.638402,75.5861753 281.431716,75.5861753 L281.431716,60.0695811 C287.217693,60.0695811 292.515695,61.3220417 297.046881,63.966125 C316.705259,75.2382696 321.166735,110.446326 311.128414,154.699931 C354.627803,167.989929 383,189.42092 383,212.034791 Z M291.625954,164.817574 C282.728393,162.582956 273.42331,160.767328 263.778626,159.30086 C267.106721,164.608079 270.434817,170.054961 273.559151,175.641507 C276.751406,181.228054 279.671979,186.8146 282.456712,192.401146 C285.988568,183.113513 289.112903,173.82588 291.625954,164.817574 Z M259.810382,240.354153 C265.031756,231.285425 269.83542,222.009016 274.221374,212.732606 C269.83542,203.456197 265.031756,194.249015 259.740763,185.180286 C254.310534,175.903877 248.67145,167.112056 242.89313,158.874051 C232.589618,158.043328 222.077252,157.558739 211.564885,157.558739 C200.982901,157.558739 190.470534,158.043328 180.097405,158.943278 C174.319084,167.181283 168.749618,176.042331 163.319389,185.387967 C158.098015,194.456696 153.224733,203.733105 148.908397,213.009514 C153.294351,222.285923 158.098015,231.493106 163.389008,240.561834 C168.819237,249.838243 174.458321,258.630064 180.236641,266.868069 C190.540153,267.698793 201.052519,268.183381 211.564885,268.183381 C222.14687,268.183381 232.659237,267.698793 243.032366,266.798842 C248.810687,258.560837 254.380153,249.699789 259.810382,240.354153 Z M282.298451,229.856734 C279.527236,235.39653 276.62084,241.005575 273.511673,246.545372 C270.402505,252.154416 267.090565,257.624966 263.778626,262.95702 C273.444082,261.502823 282.771585,259.633142 291.625954,257.417223 C289.057511,248.415053 285.948344,239.135893 282.298451,229.856734 Z M211.668746,304.767908 C218.038886,297.973639 224.478266,290.40086 230.709924,282.120344 C224.409025,282.474212 217.969645,282.615759 211.461025,282.615759 C205.021645,282.615759 198.651505,282.403438 192.419847,282.120344 C198.789987,290.40086 205.229367,297.973639 211.668746,304.767908 Z M159.351145,264.69914 C156.02305,259.391921 152.762875,253.945039 149.57062,248.358493 C146.378365,242.771946 143.457792,237.1854 140.673059,231.598854 C137.141203,240.886487 134.016868,250.17412 131.503817,259.182426 C140.401378,261.417044 149.706461,263.232672 159.351145,264.69914 Z M211.461025,119.232092 C205.090885,126.026361 198.651505,133.59914 192.419847,141.879656 C198.720746,141.525788 205.160126,141.384241 211.668746,141.384241 C218.108126,141.384241 224.478266,141.596562 230.709924,141.879656 C224.339784,133.59914 217.900404,126.026361 211.461025,119.232092 Z M159.351145,159.30086 C149.685689,160.758105 140.358186,162.631706 131.503817,164.782878 C134.07226,173.80392 137.181427,183.102533 140.83132,192.401146 C143.602535,186.849735 146.508931,181.298325 149.618098,175.746914 C152.727266,170.126111 156.039206,164.644092 159.351145,159.30086 Z M97.3451226,248.024253 C103.415872,250.597286 109.975073,252.961694 116.883167,255.117479 C120.790776,241.5569 125.954403,227.43999 132.374046,212.975372 C125.884624,198.441214 120.651219,184.254762 116.673831,170.624642 C109.905294,172.780426 103.346094,175.075293 97.3451226,177.648326 C72.6434516,188.079541 56.6641221,201.918285 56.6641221,212.836289 C56.6641221,223.754294 72.6434516,237.523497 97.3451226,248.024253 Z M134.325955,346.444663 C136.428668,347.626008 139.092105,348.251426 142.246174,348.320917 C156.824984,348.320917 178.272656,336.78543 201.122137,315.729692 C191.239386,305.514531 181.426726,293.840063 171.964517,280.984249 C156.19417,279.316467 141.194818,276.745305 127.457093,273.409742 C125.915103,280.428322 124.653475,287.307919 123.882481,293.840063 C120.658321,320.385581 124.793656,341.024374 134.325955,346.444663 Z M300.069179,293.452229 C299.297967,287.046898 298.035983,280.366069 296.423449,273.409742 C282.681852,276.784594 267.678272,279.332951 251.83337,280.98594 C242.508715,293.727727 232.693289,305.229773 222.877863,315.354328 C245.733784,336.08556 267.257611,347.449857 281.77042,347.449857 C284.995488,347.449857 287.729786,346.898861 289.833091,345.659119 C299.297967,340.218032 303.364357,319.762298 300.069179,293.452229 Z M326.622622,246.351674 C351.301548,235.920459 367.266163,222.081715 367.335878,211.163711 C367.335878,200.245706 351.371262,186.476503 326.692337,175.975747 C320.557463,173.402714 314.004302,171.038306 307.102568,168.882521 C303.198558,182.4431 298.039686,196.56001 291.625954,211.024628 C298.109401,225.558786 303.337987,239.745238 307.311712,253.375358 C314.074016,251.219574 320.627177,248.924707 326.622622,246.351674 Z M211.607573,235.989651 C198.441143,235.989651 187.767642,225.293137 187.767642,212.098318 C187.767642,198.9035 198.441143,188.206986 211.607573,188.206986 C224.774004,188.206986 235.447504,198.9035 235.447504,212.098318 C235.447504,225.293137 224.774004,235.989651 211.607573,235.989651 Z" id="React-Logo" fill="#FFFFFF"></path>
            </g>
        </g>
    </g>
</svg>